<svg xmlns="http://www.w3.org/2000/svg" viewBox="0 0 511 511"><defs><style>.cls-1{fill:#4f6b77;}.cls-2{fill:#05334d;}.cls-3{fill:#fff;}.cls-4{fill:#c80a50;}.cls-5{fill:#5a5b5c;}.cls-6{fill:none;}</style></defs><g id="Layer_2" data-name="Layer 2"><g id="Layer_1-2" data-name="Layer 1"><g id="Group_9220" data-name="Group 9220"><rect id="Rectangle_17705" data-name="Rectangle 17705" class="cls-1" x="30.52" y="7.18" width="299.06" height="496.46" rx="40.55"/><path id="Path_11501" data-name="Path 11501" class="cls-2" d="M166.87,273.35H23.39V58A56.3,56.3,0,0,1,78,0c.84,0,1.69,0,2.53,0H279.05a58.88,58.88,0,0,1,57.62,53.93V213.45a7.13,7.13,0,0,1-14.25,0V54.61c-2.39-36.72-40.64-40.14-44-40.37H80.49c-41.61,0-42.84,42.12-42.88,43.91v200.9H166.83a7.13,7.13,0,0,1,.62,14.24h-.62Z"/><path id="Path_11503" data-name="Path 11503" class="cls-2" d="M273.33,510.85c-1.74,0-3.39-.06-4.94-.18H72.66a51.26,51.26,0,0,1-49.2-47.17V272.62a7.12,7.12,0,1,1,14.24-.13v189.6c.64,4.06,6.53,35.73,37.1,34.31H269.31c1.93.15,47.53,3.19,53.19-38.88V281.92a7.13,7.13,0,0,1,14.25,0V459A59.72,59.72,0,0,1,273.33,510.85Z"/><path id="Path_11504" data-name="Path 11504" class="cls-3" d="M166.26,347.28H82.57a7.12,7.12,0,1,1-.63-14.23h84.25a7.12,7.12,0,0,1,.63,14.23q-.31,0-.63,0Z"/><path id="Path_11505" data-name="Path 11505" class="cls-3" d="M166.26,389.7H82.57a7.12,7.12,0,1,1-.63-14.23q.32,0,.63,0h83.62a7.12,7.12,0,0,1,.63,14.23h-.56Z"/><path id="Path_11506" data-name="Path 11506" class="cls-3" d="M136,434H82.57a7.13,7.13,0,0,1,0-14.25H135.9a7.13,7.13,0,0,1,0,14.25Z"/><path id="Path_11507" data-name="Path 11507" class="cls-3" d="M171,273.35H110.17l2.42-59.07A53.53,53.53,0,0,1,166.07,161H194a53.55,53.55,0,0,1,53.49,53.48V254a7.13,7.13,0,0,1-14.25,0V214.43a39.28,39.28,0,0,0-39.2-39.2H166.07a39.28,39.28,0,0,0-39.2,39.2v.3L125,259.12h46a7.12,7.12,0,1,1,.63,14.23Z"/><path id="Path_11508" data-name="Path 11508" class="cls-3" d="M185.16,138.6H173.57a33.4,33.4,0,0,1-33.36-33.36V80.59a15.56,15.56,0,0,1,15.52-15.54H203a15.55,15.55,0,0,1,15.53,15.54v24.65A33.4,33.4,0,0,1,185.16,138.6ZM155.73,79.3a1.36,1.36,0,0,0-1.29,1.35v24.66a19.16,19.16,0,0,0,19.13,19.13h11.59a19.15,19.15,0,0,0,19.12-19.13V80.65a1.35,1.35,0,0,0-1.35-1.35h-47.2Z"/><g id="Group_9193" data-name="Group 9193"><g id="Group_9192" data-name="Group 9192"><path id="Rectangle_17706" data-name="Rectangle 17706" class="cls-1" d="M297.26,255.4H440A40.55,40.55,0,0,1,480.52,296v23.51H256.71V296A40.55,40.55,0,0,1,297.26,255.4Z"/><path id="Rectangle_17707" data-name="Rectangle 17707" class="cls-4" d="M256.71,319.45H480.52v119.2A40.54,40.54,0,0,1,440,479.2H297.26a40.54,40.54,0,0,1-40.55-40.55V319.45Z"/><path id="Path_11509" data-name="Path 11509" class="cls-2" d="M445.32,486.33H290.59a41,41,0,0,1-40.95-40.95V295a46.74,46.74,0,0,1,46.69-46.69H443.68a44,44,0,0,1,44,44V444A42.35,42.35,0,0,1,445.32,486.33ZM296.26,262.51A32.44,32.44,0,0,0,263.82,295V445.37a26.74,26.74,0,0,0,26.71,26.71H445.34A28.11,28.11,0,0,0,473.41,444V292.22a29.75,29.75,0,0,0-29.74-29.74h0Z"/><g id="Group_9191" data-name="Group 9191"><path id="Path_11510" data-name="Path 11510" class="cls-3" d="M359.88,433.69a8.68,8.68,0,0,1,8.16-9.17h.3a8.86,8.86,0,0,1,9,8.73v.19a8.75,8.75,0,1,1-17.45,1.2,7.37,7.37,0,0,1,0-.94Zm3.69-21.19-2.07-71.05h14.2l-2.06,71.05Z"/></g></g><rect id="Rectangle_17708" data-name="Rectangle 17708" class="cls-5" x="296.84" y="217.2" width="24.7" height="70.23" rx="12.34"/><rect id="Rectangle_17709" data-name="Rectangle 17709" class="cls-5" x="415.69" y="217.2" width="24.7" height="70.23" rx="12.34"/></g></g><rect class="cls-6" width="511" height="511"/></g></g></svg>